<svg width="77" height="20" viewBox="0 0 77 20" fill="none" xmlns="http://www.w3.org/2000/svg">
<g clip-path="url(#clip0_14_31)">
<path d="M3.3125 19H1.15625V1.75H4.94092L20.7534 16.8438V1.75H22.9097V19H20.0347L3.3125 3.54688V19ZM27.9234 1.75H30.0796V19H27.9234V1.75ZM51.254 1.75H54.4884L42.2696 10.1953L54.8478 19H51.6134L40.1134 11.0938H37.2384V19H35.0821V1.75H37.2384V9.29688H40.1134L51.254 1.75ZM58.4128 19V1.75H75.6628V3.54688H60.569V9.29688H74.944V11.0938H60.569V17.2031H75.6628V19H58.4128Z" fill="black"/>
<path d="M3.3125 19V20H4.3125V19H3.3125ZM1.15625 19H0.15625V20H1.15625V19ZM1.15625 1.75V0.75H0.15625V1.75H1.15625ZM4.94092 1.75L5.63139 1.02664L5.34158 0.75H4.94092V1.75ZM20.7534 16.8438L20.0629 17.5671L21.7534 19.1807V16.8438H20.7534ZM20.7534 1.75V0.75H19.7534V1.75H20.7534ZM22.9097 1.75H23.9097V0.75H22.9097V1.75ZM22.9097 19V20H23.9097V19H22.9097ZM20.0347 19L19.356 19.7344L19.6434 20H20.0347V19ZM3.3125 3.54688L3.99119 2.81245L2.3125 1.26116L2.3125 3.54688H3.3125ZM3.3125 18H1.15625V20H3.3125V18ZM2.15625 19V1.75H0.15625V19H2.15625ZM1.15625 2.75H4.94092V0.75H1.15625V2.75ZM4.25044 2.47336L20.0629 17.5671L21.4439 16.1204L5.63139 1.02664L4.25044 2.47336ZM21.7534 16.8438V1.75H19.7534V16.8438H21.7534ZM20.7534 2.75H22.9097V0.75H20.7534V2.75ZM21.9097 1.75V19H23.9097V1.75H21.9097ZM22.9097 18H20.0347V20H22.9097V18ZM20.7134 18.2656L3.99119 2.81245L2.63381 4.2813L19.356 19.7344L20.7134 18.2656ZM2.3125 3.54688V19H4.3125V3.54688H2.3125ZM27.9234 1.75V0.75H26.9234V1.75H27.9234ZM30.0796 1.75H31.0796V0.75H30.0796V1.75ZM30.0796 19V20H31.0796V19H30.0796ZM27.9234 19H26.9234V20H27.9234V19ZM27.9234 2.75H30.0796V0.75H27.9234V2.75ZM29.0796 1.75V19H31.0796V1.75H29.0796ZM30.0796 18H27.9234V20H30.0796V18ZM28.9234 19V1.75H26.9234V19H28.9234ZM51.254 1.75V0.75H50.9472L50.6932 0.922081L51.254 1.75ZM54.4884 1.75L55.057 2.57263L57.694 0.75H54.4884V1.75ZM42.2696 10.1953L41.7011 9.37269L40.5184 10.1901L41.6962 11.0145L42.2696 10.1953ZM54.8478 19V20H58.0201L55.4212 18.1808L54.8478 19ZM51.6134 19L51.0469 19.824L51.3028 20H51.6134V19ZM40.1134 11.0938L40.6799 10.2697L40.424 10.0938H40.1134V11.0938ZM37.2384 11.0938V10.0938H36.2384V11.0938H37.2384ZM37.2384 19V20H38.2384V19H37.2384ZM35.0821 19H34.0821V20H35.0821V19ZM35.0821 1.75V0.75H34.0821V1.75H35.0821ZM37.2384 1.75H38.2384V0.75H37.2384V1.75ZM37.2384 9.29688H36.2384V10.2969H37.2384V9.29688ZM40.1134 9.29688V10.2969H40.4202L40.6742 10.1248L40.1134 9.29688ZM51.254 2.75H54.4884V0.75H51.254V2.75ZM53.9198 0.927373L41.7011 9.37269L42.8382 11.0179L55.057 2.57263L53.9198 0.927373ZM41.6962 11.0145L54.2743 19.8192L55.4212 18.1808L42.8431 9.37608L41.6962 11.0145ZM54.8478 18H51.6134V20H54.8478V18ZM52.1799 18.176L40.6799 10.2697L39.5469 11.9178L51.0469 19.824L52.1799 18.176ZM40.1134 10.0938H37.2384V12.0938H40.1134V10.0938ZM36.2384 11.0938V19H38.2384V11.0938H36.2384ZM37.2384 18H35.0821V20H37.2384V18ZM36.0821 19V1.75H34.0821V19H36.0821ZM35.0821 2.75H37.2384V0.75H35.0821V2.75ZM36.2384 1.75V9.29688H38.2384V1.75H36.2384ZM37.2384 10.2969H40.1134V8.29688H37.2384V10.2969ZM40.6742 10.1248L51.8149 2.57792L50.6932 0.922081L39.5526 8.46896L40.6742 10.1248ZM58.4128 19H57.4128V20H58.4128V19ZM58.4128 1.75V0.75H57.4128V1.75H58.4128ZM75.6628 1.75H76.6628V0.75H75.6628V1.75ZM75.6628 3.54688V4.54688H76.6628V3.54688H75.6628ZM60.569 3.54688V2.54688H59.569V3.54688H60.569ZM60.569 9.29688H59.569V10.2969H60.569V9.29688ZM74.944 9.29688H75.944V8.29688H74.944V9.29688ZM74.944 11.0938V12.0938H75.944V11.0938H74.944ZM60.569 11.0938V10.0938H59.569V11.0938H60.569ZM60.569 17.2031H59.569V18.2031H60.569V17.2031ZM75.6628 17.2031H76.6628V16.2031H75.6628V17.2031ZM75.6628 19V20H76.6628V19H75.6628ZM59.4128 19V1.75H57.4128V19H59.4128ZM58.4128 2.75H75.6628V0.75H58.4128V2.75ZM74.6628 1.75V3.54688H76.6628V1.75H74.6628ZM75.6628 2.54688H60.569V4.54688H75.6628V2.54688ZM59.569 3.54688V9.29688H61.569V3.54688H59.569ZM60.569 10.2969H74.944V8.29688H60.569V10.2969ZM73.944 9.29688V11.0938H75.944V9.29688H73.944ZM74.944 10.0938H60.569V12.0938H74.944V10.0938ZM59.569 11.0938V17.2031H61.569V11.0938H59.569ZM60.569 18.2031H75.6628V16.2031H60.569V18.2031ZM74.6628 17.2031V19H76.6628V17.2031H74.6628ZM75.6628 18H58.4128V20H75.6628V18Z" fill="black"/>
</g>
<defs>
<clipPath id="clip0_14_31">
<rect width="77" height="20" fill="white"/>
</clipPath>
</defs>
</svg>
